# xmcd
#
# Track frame offsets:
#	150
#	15782
#	29405
#	47100
#	55427
#	70725
#	79585
#	94922
#	107397
#	118015
#	132365
#	140682
#	151942
#	173622
#	192787
#	206657
#	221110
#	228690
#
# Disc length: 3238 seconds
#
# Revision: 2
# Processed by: cddbd v1.5.1PL2 Copyright (c) Steve Scherf et al.
# Submitted via: EasyCDDAExtractor 8.1.4.1
#
DISCID=f70ca412
DTITLE=Various Artist - Celtic Tradition CD2
DYEAR=1999
DGENRE=Celtic
TTITLE0=Whelan: McGuiness - Whelan - Riverdance
TTITLE1=Pickering Pick - Free For Good - Molly Malone
TTITLE2=Pickering Pick - Free For Good - Maggie
TTITLE3=Claire Hamilton - Music Masters - Come Back To Erin
TTITLE4=Pickering Pick - Free For Good - The Rose Of Tralee
TTITLE5=Claire Hamilton - Music Masters - Limerick Is Beautiful
TTITLE6=Claire Hamilton - Music Masters - Softly Flows The Clare
TTITLE7=Claire Hamilton - Music Masters - Gentle Maiden
TTITLE8=Pickering Pick - Free For Good - Bunch Of Thyme
TTITLE9=Claire Hamilton - Music Masters - Kathleen Ma Vourneen
TTITLE10=Claire Hamilton - Music Masters - Believe Me If All Those Endearing Y
TTITLE10=our Charms
TTITLE11=O. Riada - Gael-Linn Teoranta - Woman of Ireland
TTITLE12=Pickering Pick - Free For Good - The Mountains of Mourne
TTITLE13=Claire Hamilton - Music Masters - My Wild Irish Rose
TTITLE14=Claire Hamilton - Music Masters - Carrickfergus
TTITLE15=Claire Hamilton - Music Masters - Roving Galway Boy
TTITLE16=Claire Hamilton - Music Masters - Londonderry Air
TTITLE17=Various Artist - Bonus Track
EXTD=YEAR: 1999 ID3G: 88
EXTT0=
EXTT1=
EXTT2=
EXTT3=
EXTT4=
EXTT5=
EXTT6=
EXTT7=
EXTT8=
EXTT9=
EXTT10=
EXTT11=
EXTT12=
EXTT13=
EXTT14=
EXTT15=
EXTT16=
EXTT17=
PLAYORDER=
